<?xml version="1.0" encoding="UTF-8"?><svg id="a" xmlns="http://www.w3.org/2000/svg" viewBox="0 0 2204 2050"><g id="g"><g id="h"><g id="i"><path d="M237.115,2048H2v-380.899h231.178c90.353,0,139.593,38.893,139.593,100.66v5.715c0,37.749-26.898,72.638-77.244,82.93,56.07,9.726,82.412,47.468,82.412,81.784v8.004c0,62.345-50.961,101.805-140.824,101.805M264.629,1784.913c0-23.446-14.28-38.315-52.071-38.315h-98.971v83.501h96.631c37.792,0,54.411-14.869,54.411-38.322v-6.865ZM265.245,1925.038c0-25.168-16.065-39.464-54.411-39.464h-97.247v84.641h98.971c38.283,0,52.687-15.436,52.687-38.889v-6.287Z" fill="#00421f"/><path d="M697.195,2048l-32.621-78.93h-162.489l-33.237,78.93h-102.971l167.044-380.899h113.312l169.382,380.899h-118.419ZM585.051,1768.905l-55.516,132.681h109.311l-53.795-132.681Z" fill="#00421f"/><polygon points="1228.113 2048 1228.113 1792.35 1207.002 1840.965 1107.416 2048 1040.512 2048 942.096 1840.392 920.924 1791.778 920.924 2048 819.06 2048 819.06 1667.101 970.717 1667.101 1065.071 1872.42 1080.519 1908.453 1095.968 1872.42 1189.769 1667.101 1338.594 1667.101 1338.594 2048 1228.113 2048" fill="#00421f"/><path d="M1672.188,2048l-32.621-78.93h-162.489l-33.235,78.93h-102.971l167.042-380.899h113.311l169.383,380.899h-118.421ZM1559.985,1768.905l-55.456,132.681h109.311l-53.855-132.681Z" fill="#00421f"/><path d="M2076.133,2048l-116.142-146.986-54.963,53.764v93.222h-110.972v-380.899h110.972v176.724l165.935-176.724h126.483l-163.103,162.426c6.892,5.722,167.657,218.472,167.657,218.472h-125.867Z" fill="#00421f"/></g><g id="j"><path d="M2180.917,459.405C2062.988,66.863,1484.223-106.365,888.395,72.493,292.597,251.363-94.803,714.589,23.145,1107.139c63.355,210.85,259.617,358.392,520.041,422.111-72.589-23.751-141.947-56.382-206.067-99.309-97.067-66.419-175.442-162.724-210.314-276.025-35.78-113.722-25.799-238.301,16.039-348.962,84.08-214.366,252.306-378.695,449.603-495.15,13.47-7.948,27.077-15.667,40.803-23.173,94.642-51.742,194.898-92.93,295.007-123.73,328.808-96.936,720.175-102.235,1010.695,101.534,96.184,69.574,173.527,168.426,206.554,283.486,33.442,114.208,21.121,238.22-23.606,347.482-4.244,9.998-8.697,19.882-13.253,29.66,87.902-152.139,117.72-314.159,72.269-465.657" fill="#00421f"/><path d="M2101.815,561.043c-107.573-329.426-518.819-423.663-827.956-401.152-180.557,13.566-364.248,58.749-531.986,136.023-1.389.643-52.453,25.399-65.996,32.54-.164.072-63.333,35.278-83.46,47.8l-.011.011c-126.829,78.899-239.186,179.086-326.726,300.881-77.652,111.811-128.738,247.606-114.686,384.987,12.702,137.879,93.866,261.073,204.792,341.794,87.426,63.81,186.841,106.469,291.133,132.454-201.542-59.712-352.208-181.955-403.273-351.883-72.266-240.526,74.64-511.251,348.76-700.906v902.815h678.999c259.411,0,406.432-113.941,406.432-293.94v-23.12c0-99.078-75.996-208.062-237.925-236.139,145.365-29.722,223.016-130.458,223.016-239.441v-16.515c0-178.344-142.053-290.639-403.106-290.639h-226.899c480.499-121.36,934.608,29.473,1031.31,351.355,45.554,151.455,4.141,314.873-101.258,462.489,17.703-22.249,34.683-45.244,50.628-69.037,89.766-136.955,139.256-310.579,88.213-470.375M1352.412,1049.527c0,67.701-41.343,112.298-151.991,112.298h-285.904v-244.399h280.894c110.659,0,157.001,41.28,157.001,113.939v18.162ZM1350.734,626.788v19.818c0,67.701-47.906,110.639-156.99,110.639h-279.227v-241.096h285.904c108.981,0,150.313,42.938,150.313,110.639Z" fill="#00421f"/></g></g></g></svg>