<?xml version="1.0" encoding="UTF-8"?><svg id="a" xmlns="http://www.w3.org/2000/svg" viewBox="0 0 3370 587"><g id="d"><g id="e"><path d="M361.727,585H2V2h353.702c138.239,0,213.577,59.53,213.577,154.069v8.748c0,57.778-41.155,111.179-118.183,126.933,85.787,14.886,126.091,72.654,126.091,125.179v12.251c0,95.425-77.97,155.821-215.46,155.821M403.823,182.322c0-35.887-21.848-58.644-79.669-58.644h-151.425v127.806h147.846c57.821,0,83.248-22.758,83.248-58.655v-10.507ZM404.765,396.795c0-38.522-24.58-60.404-83.248-60.404h-148.787v129.55h151.425c58.573,0,80.611-23.626,80.611-59.523v-9.623Z" fill="#fff"/><path d="M1065.648,585l-49.911-120.81h-248.608l-50.852,120.81h-157.546L814.308,2h173.367l259.154,583h-181.181ZM894.068,157.82l-84.939,203.08h167.246l-82.306-203.08Z" fill="#fff"/><polygon points="1877.953 585 1877.953 193.705 1845.653 268.113 1693.286 585 1590.924 585 1440.347 267.238 1407.953 192.829 1407.953 585 1252.101 585 1252.101 2 1484.137 2 1628.499 316.259 1652.134 371.41 1675.772 316.259 1819.287 2 2046.988 2 2046.988 585 1877.953 585" fill="#fff"/><path d="M2557.388,585l-49.91-120.81h-248.608l-50.85,120.81h-157.546L2306.049,2h173.366l259.157,583h-181.184ZM2385.717,157.82l-84.848,203.08h167.246l-82.398-203.08Z" fill="#fff"/><path d="M3175.423,585l-177.698-224.975-84.094,82.291v142.685h-169.787V2h169.787v270.492L3167.513,2h193.519l-249.547,248.608c10.545,8.758,256.516,334.392,256.516,334.392h-192.577Z" fill="#fff"/></g></g></svg>