<?xml version="1.0" encoding="UTF-8"?><svg id="a" xmlns="http://www.w3.org/2000/svg" viewBox="0 0 5673 1400"><g id="i"><g id="j"><g id="k"><path d="M2664.436,1054.785h-359.761V471.833h353.736c138.253,0,213.598,59.525,213.598,154.056v8.747c0,57.774-41.159,111.17-118.195,126.922,85.795,14.885,126.103,72.649,126.103,125.168v12.25c0,95.417-77.978,155.809-215.481,155.809M2706.537,652.14c0-35.884-21.85-58.64-79.677-58.64h-151.44v127.796h147.86c57.827,0,83.256-22.756,83.256-58.65v-10.507ZM2707.479,866.596c0-38.519-24.582-60.399-83.256-60.399h-148.802v129.54h151.44c58.578,0,80.619-23.624,80.619-59.518v-9.623Z" fill="#00421f"/><path d="M3368.425,1054.785l-49.916-120.8h-248.632l-50.857,120.8h-157.561l255.601-582.952h173.384l259.179,582.952h-181.198ZM3196.829,627.64l-84.948,203.064h167.262l-82.314-203.064Z" fill="#00421f"/><polygon points="4180.809 1054.785 4180.809 663.522 4148.506 737.924 3996.124 1054.785 3893.752 1054.785 3743.161 737.049 3710.764 662.646 3710.764 1054.785 3554.897 1054.785 3554.897 471.833 3786.955 471.833 3931.331 786.066 3954.969 841.213 3978.608 786.066 4122.137 471.833 4349.861 471.833 4349.861 1054.785 4180.809 1054.785" fill="#00421f"/><path d="M4860.31,1054.785l-49.915-120.8h-248.632l-50.855,120.8h-157.561l255.599-582.952h173.383l259.182,582.952h-181.201ZM4688.623,627.64l-84.856,203.064h167.262l-82.406-203.064Z" fill="#00421f"/><path d="M5478.404,1054.785l-177.715-224.957-84.102,82.284v142.673h-169.804V471.833h169.804v270.47l253.905-270.47h193.537l-249.571,248.588c10.546,8.757,256.541,334.365,256.541,334.365h-192.596Z" fill="#00421f"/></g><g id="l"><path d="M1983.996,418.154C1876.725,61.013,1350.266-96.592,808.287,66.136,266.335,228.874-86.055,650.323,21.234,1007.471c57.629,191.834,236.154,326.07,473.042,384.042-66.029-21.609-129.119-51.298-187.444-90.353-88.294-60.429-159.586-148.048-191.307-251.131-32.546-103.465-23.468-216.809,14.59-317.491,76.482-195.033,229.504-344.542,408.97-450.494,12.253-7.231,24.63-14.254,37.116-21.083,86.089-47.076,177.284-84.549,268.346-112.572,299.092-88.194,655.089-93.015,919.353,92.377,87.492,63.299,157.844,153.236,187.887,257.919,30.42,103.908,19.212,216.736-21.473,316.144-3.861,9.096-7.911,18.089-12.056,26.985,79.958-138.418,107.081-285.826,65.738-423.661" fill="#00421f"/><path d="M1912.043,510.625c-97.851-299.716-471.931-385.454-753.129-364.974-164.239,12.343-331.329,53.451-483.908,123.756-1.263.585-47.713,23.108-60.032,29.605-.149.065-57.609,32.097-75.917,43.489l-.01.01c-115.367,71.783-217.57,162.935-297.198,273.746-70.634,101.727-117.104,225.275-104.321,350.267,11.554,125.445,85.383,237.528,186.284,310.969,79.525,58.055,169.956,96.867,264.822,120.509-183.327-54.327-320.377-165.545-366.827-320.148-65.735-218.834,67.895-465.144,317.241-637.694v821.393h617.634c235.967,0,369.7-103.665,369.7-267.431v-21.035c0-90.142-69.127-189.297-216.423-214.843,132.227-27.041,202.861-118.692,202.861-217.847v-15.026c0-162.26-129.215-264.427-366.675-264.427h-206.393c437.073-110.415,850.142,26.815,938.105,319.667,41.437,137.795,3.767,286.476-92.107,420.779,16.103-20.242,31.549-41.163,46.052-62.811,81.654-124.604,126.671-282.569,80.241-427.954M1230.368,955.055c0,61.596-37.607,102.17-138.255,102.17h-260.065v-222.357h255.508c100.658,0,142.812,37.557,142.812,103.663v16.524ZM1228.842,570.441v18.031c0,61.596-43.576,100.661-142.802,100.661h-253.992v-219.353h260.065c99.132,0,136.729,39.065,136.729,100.661Z" fill="#00421f"/></g></g></g></svg>