<?xml version="1.0" encoding="UTF-8"?><svg id="a" xmlns="http://www.w3.org/2000/svg" viewBox="0 0 2005 1400"><g id="b"><g id="c"><path d="M1983.824,418.154C1876.562,61.013,1350.149-96.592,808.217,66.136,266.312,228.874-86.047,650.323,21.232,1007.471c57.624,191.834,236.134,326.07,473.001,384.042-66.023-21.609-129.107-51.298-187.428-90.353-88.287-60.429-159.572-148.048-191.291-251.131-32.543-103.465-23.466-216.809,14.588-317.491,76.475-195.033,229.484-344.542,408.935-450.494,12.252-7.231,24.628-14.254,37.113-21.083,86.081-47.076,177.269-84.549,268.322-112.572,299.066-88.194,655.032-93.015,919.273,92.377,87.484,63.299,157.831,153.236,187.87,257.919,30.417,103.908,19.21,216.736-21.471,316.144-3.861,9.096-7.911,18.089-12.054,26.985,79.951-138.418,107.072-285.826,65.732-423.661" fill="#fff"/><path d="M1911.877,510.625c-97.842-299.716-471.89-385.454-753.064-364.974-164.225,12.343-331.3,53.451-483.866,123.756-1.263.585-47.709,23.108-60.026,29.605-.149.065-57.604,32.097-75.911,43.489l-.01.01c-115.357,71.783-217.551,162.935-297.172,273.746-70.628,101.727-117.093,225.275-104.312,350.267,11.553,125.445,85.375,237.528,186.268,310.969,79.518,58.055,169.941,96.867,264.799,120.509-183.311-54.327-320.349-165.545-366.795-320.148-65.729-218.834,67.889-465.144,317.213-637.694v821.393h617.58c235.946,0,369.668-103.665,369.668-267.431v-21.035c0-90.142-69.121-189.297-216.404-214.843,132.216-27.041,202.843-118.692,202.843-217.847v-15.026c0-162.26-129.203-264.427-366.643-264.427h-206.375c437.035-110.415,850.068,26.815,938.023,319.667,41.433,137.795,3.767,286.476-92.099,420.779,16.102-20.242,31.546-41.163,46.048-62.811,81.647-124.604,126.659-282.569,80.234-427.954M1230.261,955.055c0,61.596-37.603,102.17-138.243,102.17h-260.042v-222.357h255.486c100.65,0,142.799,37.557,142.799,103.663v16.524ZM1228.735,570.441v18.031c0,61.596-43.572,100.661-142.789,100.661h-253.97v-219.353h260.042c99.123,0,136.717,39.065,136.717,100.661Z" fill="#fff"/></g></g></svg>